<?xml version="1.0" encoding="utf-8"?>
<!-- Svg Vector Icons : http://www.onlinewebfonts.com/icon -->
<!DOCTYPE svg PUBLIC "-//W3C//DTD SVG 1.1//EN" "http://www.w3.org/Graphics/SVG/1.1/DTD/svg11.dtd">
<svg version="1.1" xmlns="http://www.w3.org/2000/svg" xmlns:xlink="http://www.w3.org/1999/xlink" x="0px" y="0px" viewBox="0 0 1000 1000" enable-background="new 0 0 1000 1000" xml:space="preserve">
<metadata> Svg Vector Icons : http://www.onlinewebfonts.com/icon </metadata>
<g><path d="M18.6,277.6l-0.3,1.1l481.6,250.8l472.8-246.3c10.6-4,17.4-13.9,17.4-25.3c0-14.9-12.1-27.1-27.1-27.1c-1.7,0-3.4,0.2-5,0.5l-0.6-1.2L499.8,468.4L48.9,233.7c-3.9-1.8-7.8-2.8-11.8-2.8C22.1,230.9,10,243,10,258C10,265.5,13.2,272.6,18.6,277.6z"/><path d="M962.9,471c-1.5,0-2.9,0.1-4.4,0.4l-0.5-1.3L499.8,708.7L52.6,475.9c-4.6-3.2-10-4.9-15.5-4.9c-15,0-27.1,12.1-27.1,27.1c0,7.3,3,14.1,8,19.1l-0.7,1.4l482.5,251.3l481.9-251.1l-0.4-0.9c5.5-5,8.7-12.2,8.7-19.8C990,483.1,977.9,471,962.9,471z"/></g>
</svg>